<?xml version="1.0" encoding="utf-8"?>
<!-- Generator: Adobe Illustrator 17.1.0, SVG Export Plug-In . SVG Version: 6.00 Build 0)  -->
<!DOCTYPE svg PUBLIC "-//W3C//DTD SVG 1.1//EN" "http://www.w3.org/Graphics/SVG/1.1/DTD/svg11.dtd">
<svg version="1.1" id="Ebene_1" xmlns="http://www.w3.org/2000/svg" xmlns:xlink="http://www.w3.org/1999/xlink" x="0px" y="0px"
	 viewBox="0 0 148 148" enable-background="new 0 0 148 148" xml:space="preserve">
<g>
	<g>
		<g>
			<g>
				<path fill="#1A1A1A" d="M11,41.8c0-2.2,1.6-4.9,3.5-6L70.5,3.6c1.9-1.1,5-1.1,6.9,0l56.1,32.2c1.9,1.1,3.5,3.8,3.5,6v64.4
					c0,2.2-1.6,4.9-3.5,6l-56.1,32.2c-1.9,1.1-5,1.1-6.9,0l-56.1-32.2c-1.9-1.1-3.5-3.8-3.5-6V41.8z"/>
				<path fill="none" stroke="#252526" stroke-width="2" stroke-miterlimit="10" d="M11,41.8c0-2.2,1.6-4.9,3.5-6L70.5,3.6
					c1.9-1.1,5-1.1,6.9,0l56.1,32.2c1.9,1.1,3.5,3.8,3.5,6v64.4c0,2.2-1.6,4.9-3.5,6l-56.1,32.2c-1.9,1.1-5,1.1-6.9,0l-56.1-32.2
					c-1.9-1.1-3.5-3.8-3.5-6V41.8z"/>
			</g>
			<g>
				
					<image overflow="visible" opacity="0.25" width="319" height="386" xlink:href="283DBFF7269F5C89.png"  transform="matrix(0.24 0 0 0.24 35.8251 28.0965)">
				</image>
				<g>
					<g>
						<g>
							<g>
								<linearGradient id="SVGID_1_" gradientUnits="userSpaceOnUse" x1="50.5863" y1="74.4014" x2="97.4937" y2="74.4014">
									<stop  offset="0" style="stop-color:#EBE6E5"/>
									<stop  offset="0" style="stop-color:#E2DFDC"/>
									<stop  offset="6.237378e-02" style="stop-color:#D4D0CF"/>
									<stop  offset="0.1815" style="stop-color:#B0A9AC"/>
									<stop  offset="0.264" style="stop-color:#938B90"/>
									<stop  offset="0.5225" style="stop-color:#F8F9FA"/>
									<stop  offset="0.5842" style="stop-color:#EAEAEB"/>
									<stop  offset="0.7027" style="stop-color:#C5C3C5"/>
									<stop  offset="0.8647" style="stop-color:#8B8587"/>
									<stop  offset="0.8764" style="stop-color:#868082"/>
									<stop  offset="1" style="stop-color:#D9D9DA"/>
									<stop  offset="1" style="stop-color:#AFAEB1"/>
								</linearGradient>
								<path fill="url(#SVGID_1_)" stroke="#1A1A1A" stroke-miterlimit="10" d="M58.7,42.9l33.1,55.3V42.9h5.7v63.1h-8.1L56.3,50.2
									v55.7h-5.7V42.9H58.7z"/>
								<linearGradient id="SVGID_2_" gradientUnits="userSpaceOnUse" x1="48.3251" y1="74.4014" x2="99.7549" y2="74.4014">
									<stop  offset="0" style="stop-color:#EBE6E5"/>
									<stop  offset="0" style="stop-color:#E2DFDC"/>
									<stop  offset="6.237378e-02" style="stop-color:#D4D0CF"/>
									<stop  offset="0.1815" style="stop-color:#B0A9AC"/>
									<stop  offset="0.264" style="stop-color:#938B90"/>
									<stop  offset="0.5225" style="stop-color:#F8F9FA"/>
									<stop  offset="0.5842" style="stop-color:#EAEAEB"/>
									<stop  offset="0.7027" style="stop-color:#C5C3C5"/>
									<stop  offset="0.8647" style="stop-color:#8B8587"/>
									<stop  offset="0.8764" style="stop-color:#868082"/>
									<stop  offset="1" style="stop-color:#D9D9DA"/>
									<stop  offset="1" style="stop-color:#AFAEB1"/>
								</linearGradient>
								<path fill="url(#SVGID_2_)" stroke="#1A1A1A" stroke-miterlimit="10" d="M99.8,108.2H88.1L58.6,58.5v49.7H48.3V40.6H60
									L89.5,90V40.6h10.3V108.2z M94,103.7h1.2V45.1H94V103.7z M90.7,103.7h1.7l-35-58.6h-1.5L90.7,103.7z M52.8,103.7h1.2V45.1
									h-1.2V103.7z"/>
							</g>
						</g>
						<g>
							<g>
								<linearGradient id="SVGID_3_" gradientUnits="userSpaceOnUse" x1="50.5863" y1="74.4014" x2="97.4937" y2="74.4014">
									<stop  offset="0" style="stop-color:#EBE6E5"/>
									<stop  offset="0" style="stop-color:#E2DFDC"/>
									<stop  offset="6.237378e-02" style="stop-color:#D4D0CF"/>
									<stop  offset="0.1815" style="stop-color:#B0A9AC"/>
									<stop  offset="0.264" style="stop-color:#938B90"/>
									<stop  offset="0.5225" style="stop-color:#F8F9FA"/>
									<stop  offset="0.5842" style="stop-color:#EAEAEB"/>
									<stop  offset="0.7027" style="stop-color:#C5C3C5"/>
									<stop  offset="0.8647" style="stop-color:#8B8587"/>
									<stop  offset="0.8764" style="stop-color:#868082"/>
									<stop  offset="1" style="stop-color:#D9D9DA"/>
									<stop  offset="1" style="stop-color:#AFAEB1"/>
								</linearGradient>
								<path fill="url(#SVGID_3_)" stroke="#1A1A1A" stroke-miterlimit="10" d="M97.5,42.9v63.1h-5.7V50.2l-33.1,55.7h-8.1V42.9
									h5.7v55.3l33.1-55.3H97.5z"/>
								<linearGradient id="SVGID_4_" gradientUnits="userSpaceOnUse" x1="48.3251" y1="74.4014" x2="99.7549" y2="74.4014">
									<stop  offset="0" style="stop-color:#EBE6E5"/>
									<stop  offset="0" style="stop-color:#E2DFDC"/>
									<stop  offset="6.237378e-02" style="stop-color:#D4D0CF"/>
									<stop  offset="0.1815" style="stop-color:#B0A9AC"/>
									<stop  offset="0.264" style="stop-color:#938B90"/>
									<stop  offset="0.5225" style="stop-color:#F8F9FA"/>
									<stop  offset="0.5842" style="stop-color:#EAEAEB"/>
									<stop  offset="0.7027" style="stop-color:#C5C3C5"/>
									<stop  offset="0.8647" style="stop-color:#8B8587"/>
									<stop  offset="0.8764" style="stop-color:#868082"/>
									<stop  offset="1" style="stop-color:#D9D9DA"/>
									<stop  offset="1" style="stop-color:#AFAEB1"/>
								</linearGradient>
								<path fill="url(#SVGID_4_)" stroke="#1A1A1A" stroke-miterlimit="10" d="M99.8,108.2H89.5V58.5L60,108.2H48.3V40.6h10.3V90
									l29.5-49.4h11.7V108.2z M94,103.7h1.2V45.1H94V103.7z M55.7,103.7h1.7l34.7-58.6h-1.5L55.7,103.7z M52.8,103.7h1.2V45.1
									h-1.2V103.7z"/>
							</g>
						</g>
					</g>
				</g>
			</g>
		</g>
	</g>
	<defs>
		<filter id="Adobe_OpacityMaskFilter" filterUnits="userSpaceOnUse" x="10" y="1.8" width="128" height="144.4">
			<feFlood  style="flood-color:white;flood-opacity:1" result="back"/>
			<feBlend  in="SourceGraphic" in2="back" mode="normal"/>
		</filter>
	</defs>
	<mask maskUnits="userSpaceOnUse" x="10" y="1.8" width="128" height="144.4" id="SVGID_5_">
		<g filter="url(#Adobe_OpacityMaskFilter)">
			
				<image overflow="visible" width="550" height="619" xlink:href="283DBFF7269F5C8B.jpg"  transform="matrix(0.24 0 0 0.24 8 -0.2218)">
			</image>
		</g>
	</mask>
	<g opacity="0.75" mask="url(#SVGID_5_)">
		<g>
			<g>
				<path fill="#646362" d="M11,41.8c0-2.2,1.6-4.9,3.5-6L70.5,3.6c1.9-1.1,5-1.1,6.9,0l56.1,32.2c1.9,1.1,3.5,3.8,3.5,6v64.4
					c0,2.2-1.6,4.9-3.5,6l-56.1,32.2c-1.9,1.1-5,1.1-6.9,0l-56.1-32.2c-1.9-1.1-3.5-3.8-3.5-6V41.8z"/>
				<path fill="none" stroke="#646362" stroke-width="2" stroke-miterlimit="10" d="M11,41.8c0-2.2,1.6-4.9,3.5-6L70.5,3.6
					c1.9-1.1,5-1.1,6.9,0l56.1,32.2c1.9,1.1,3.5,3.8,3.5,6v64.4c0,2.2-1.6,4.9-3.5,6l-56.1,32.2c-1.9,1.1-5,1.1-6.9,0l-56.1-32.2
					c-1.9-1.1-3.5-3.8-3.5-6V41.8z"/>
			</g>
			<g>
				<path fill="#646362" d="M110.9,103.3c0.3-1.6,0-3.4,0-5c0-3.4,0-6.7,0-10.1c0-8,0-16,0-24c0-4,0-8,0-12c0-2,0-4,0-6
					c0-0.7-0.2-1-0.2-1.7c0-0.5,0.1-1,0-1.4c-0.1-0.9-0.4-1.9-0.5-2.8c0.2-0.6-0.4-1-0.5-1.6c-0.1-0.7-0.3-1.1-0.5-1.7
					c-0.4-1.2-1.2-2.4-2.2-3.4c-1-1-2.1-1.9-3.4-2.5c-1-0.5-2.1-0.7-3.1-1.2h-1.2c0-0.1,0-0.2,0-0.2h-1.7c0-0.1,0-0.2,0-0.2h-7.9
					c0,0.1,0,0.2,0,0.2h-1.7c0,0.1,0,0.2,0,0.2h-1.2c-2.6,1-4.8,1.8-7,3.5c-1.2,1-2.3,2.4-3.1,3.6c-0.3,0.5-0.6,1.2-1,1.7
					c-0.4,0.6-0.9,0.9-1.2,1.6h-1.2c-0.4-0.7-1-1.2-1.4-1.8c-0.3-0.5-0.6-1.2-1-1.7c-1-1.2-2-2.2-3.1-3.4c-1.9-1.9-4.3-2.6-6.7-3.5
					h-1.2c0-0.1,0-0.2,0-0.2h-1.7c0-0.1,0-0.2,0-0.2h-8.2c0,0.1,0,0.2,0,0.2h-1.7c0,0.1,0,0.2,0,0.2h-1.2c-1.1,0.5-2.3,0.7-3.4,1.3
					c-1.2,0.7-2.5,1.5-3.4,2.6c-0.5,0.6-0.8,1.1-1.2,1.7c-0.2,0.2-0.3,0.7-0.5,1c-0.1,0.2-0.1,0.5-0.2,0.7c-0.3,0.6-0.5,1.1-0.7,1.7
					c-0.1,0.4-0.3,0.9-0.2,1.3c-0.1,0.8-0.4,1.7-0.5,2.5c-0.1,0.8,0.1,1.6,0,2.4c0,0.2-0.2,0.4-0.2,0.7c0,0.2,0,0.5,0,0.7
					c0,0.4,0,0.8,0,1.2c0,0.8,0,1.6,0,2.4c0,3.4,0,6.7,0,10.1c0,8,0,16,0,24c0,4,0,8,0,12c0,2,0,4,0,6c0,1.1,0.2,2,0.2,3.1
					c0,0.6,0.2,0.9,0.2,1.4c0.1,0.5-0.1,0.9,0.2,1.3c0,1.2,0.5,2.3,1,3.2c0.1,0.3,0.1,0.7,0.2,1c0.1,0.2,0.4,0.6,0.5,0.7
					c0.4,0.6,0.7,1.1,1.2,1.7c0.9,1.1,2.1,2,3.4,2.6c1.1,0.6,2.3,0.8,3.4,1.3h1.2c0,0.1,0,0.2,0,0.2h1.7c0,0.1,0,0.2,0,0.2h8.2
					c0-0.1,0-0.2,0-0.2h1.7c0-0.1,0-0.2,0-0.2h1.2c2.7-1,5.1-1.9,7.2-4c0.6-0.6,1.4-1.2,1.9-1.9c0.4-0.4,0.6-1.2,1-1.7
					c0.4-0.6,0.8-1.1,1.2-1.7c0.3-0.5,0.9-0.8,1.2-1.3h0.5c1.4,0.9,1.8,2.3,2.6,3.5c0.8,1.2,1.9,2.6,3.1,3.6c2.1,1.7,4.4,2.5,7,3.5
					h1.2c0,0.1,0,0.2,0,0.2h1.7c0,0.1,0,0.2,0,0.2h7.9c0-0.1,0-0.2,0-0.2h1.7c0-0.1,0-0.2,0-0.2h1.2c1.1-0.5,2.3-0.7,3.4-1.3
					c1.2-0.7,2.5-1.5,3.4-2.6c0.5-0.6,0.8-1.1,1.2-1.7c0.2-0.2,0.3-0.7,0.5-1c0.1-0.2,0.1-0.5,0.2-0.7c0.5-1,1-2.1,1-3.2
					c0.4-0.4,0.2-0.8,0.2-1.3c0.1-0.5,0.2-0.7,0.2-1.2c0.1-0.4,0-0.8,0-1.2c0-0.2,0-0.5,0-0.7C110.6,103.6,110.7,103.4,110.9,103.3z
					"/>
				<g>
					<g>
						<g>
							<g>
								<path fill="#646362" stroke="#646362" stroke-miterlimit="10" d="M58.7,42.9l33.1,55.3V42.9h5.7v63.1h-8.1L56.3,50.2v55.7
									h-5.7V42.9H58.7z"/>
								<path fill="#646362" stroke="#646362" stroke-miterlimit="10" d="M99.8,108.2H88.1L58.6,58.5v49.7H48.3V40.6H60L89.5,90
									V40.6h10.3V108.2z M94,103.7h1.2V45.1H94V103.7z M90.7,103.7h1.7l-35-58.6h-1.5L90.7,103.7z M52.8,103.7h1.2V45.1h-1.2
									V103.7z"/>
							</g>
						</g>
						<g>
							<g>
								<path fill="#646362" stroke="#646362" stroke-miterlimit="10" d="M97.5,42.9v63.1h-5.7V50.2l-33.1,55.7h-8.1V42.9h5.7v55.3
									l33.1-55.3H97.5z"/>
								<path fill="#646362" stroke="#646362" stroke-miterlimit="10" d="M99.8,108.2H89.5V58.5L60,108.2H48.3V40.6h10.3V90
									l29.5-49.4h11.7V108.2z M94,103.7h1.2V45.1H94V103.7z M55.7,103.7h1.7l34.7-58.6h-1.5L55.7,103.7z M52.8,103.7h1.2V45.1
									h-1.2V103.7z"/>
							</g>
						</g>
					</g>
				</g>
			</g>
		</g>
	</g>
</g>
</svg>
